<?xml version="1.0" encoding="UTF-8"?>
<svg width="78px" height="24px" viewBox="0 0 78 24" version="1.1" xmlns="http://www.w3.org/2000/svg" xmlns:xlink="http://www.w3.org/1999/xlink">
    <!-- Generator: Sketch 62 (91390) - https://sketch.com -->
    <title>Ebbel logo 1440 CopyEbbel logo white</title>
    <desc>Created with Sketch.</desc>
    <defs>
        <polygon id="path-1" points="0.100575345 0.113411537 16.0927267 0.113411537 16.0927267 22.6929909 0.100575345 22.6929909"></polygon>
        <polygon id="path-3" points="0 0.119668128 16.0522866 0.119668128 16.0522866 16.2343192 0 16.2343192"></polygon>
    </defs>
    <g id="Symbols" stroke="none" stroke-width="1" fill="none" fill-rule="evenodd">
        <g id="Ebbel-headbanner" transform="translate(-85.000000, -33.000000)">
            <g id="Ebbel-logo-1440-Copy" transform="translate(85.000000, 33.000000)">
                <g id="Group-17" transform="translate(0.000000, 0.259615)">
                    <g id="Group-3" transform="translate(37.142857, 0.000000)">
                        <mask id="mask-2" fill="white">
                            <use xlink:href="#path-1"></use>
                        </mask>
                        <g id="Clip-2"></g>
                        <path d="M8.07176404,19.3370565 C10.7291478,19.3679648 12.8243973,17.1048449 12.7970847,14.5488262 C12.7691705,11.9572753 10.6685066,9.71508538 7.84688628,9.83701495 C6.54610861,9.89323397 5.44638537,10.4518953 4.58573763,11.4360933 C3.65374023,12.5021861 3.2536768,13.7547021 3.41514601,15.1823246 C3.64736328,17.2341973 5.54288187,19.377943 8.07176404,19.3370565 M0.100575345,13.033468 C0.105267819,8.79197388 0.105508458,4.55035805 0.100575345,0.308863909 C0.100575345,0.150550165 0.136671294,0.112097326 0.293568352,0.113398209 C1.244095,0.121832222 2.19474198,0.122562339 3.14526863,0.113398209 C3.33152372,0.111732268 3.3804939,0.167464547 3.38001262,0.352914313 C3.37423726,2.81304419 3.3762827,5.27317407 3.3762827,7.73330395 L3.3762827,7.99663288 C3.73760315,7.739875 4.07810827,7.52339526 4.43858648,7.34293462 C5.18553198,6.96887125 5.96484351,6.69349538 6.7924033,6.56669836 C7.50313253,6.4579109 8.21422272,6.46618556 8.93000539,6.51741545 C9.684892,6.57156581 10.4045249,6.77599862 11.0984094,7.04723716 C11.6228835,7.25252178 12.1094569,7.55442524 12.5878485,7.86922743 C13.3151819,8.34781925 13.9183452,8.94554186 14.4495572,9.62467253 C15.0228812,10.3573451 15.4733587,11.1699656 15.7189314,12.0680097 C15.8441844,12.5273751 16.0174449,12.9796827 16.055105,13.4689829 C16.0890352,13.9071749 16.0714685,14.3436633 16.0842224,14.7803951 C16.0950512,15.1604211 16.1093693,15.5456796 16.0294769,15.9162141 C15.9097587,16.4732935 15.7829416,17.0306163 15.5697349,17.5634801 C15.0467046,18.8706333 14.2552407,19.977856 13.1768141,20.8726146 C12.4167537,21.5033142 11.5627236,21.9703458 10.6379454,22.2930576 C10.1364523,22.4680424 9.61342202,22.5838876 9.08257093,22.638038 C8.37136042,22.7106847 7.66291726,22.719081 6.94930036,22.6157694 C6.55525291,22.5588203 6.16373219,22.4842266 5.78809368,22.3744657 C5.22439528,22.2097026 4.6747743,21.9834879 4.16702462,21.6758652 C3.92975392,21.5321538 3.67696196,21.4141182 3.46231138,21.230007 C3.35727217,21.1397158 3.37832814,21.2627406 3.37772654,21.3111717 C3.37459822,21.5796114 3.36064112,21.8495114 3.38133613,22.1167343 C3.39697771,22.3212888 3.32009334,22.3515887 3.14033552,22.3497634 C2.29460743,22.3405152 1.44887935,22.3456261 0.603151273,22.3456261 C0.554181102,22.3456261 0.478860889,22.3513453 0.430371998,22.3513453 C0.0837305693,22.3513453 0.1045459,22.403427 0.1045459,22.0530924" id="Fill-1" fill="#9ea6b2" mask="url(#mask-2)"></path>
                    </g>
                    <path d="M26.5903213,10.0726482 C24.0210931,10.0437355 21.8689834,12.2040262 21.8593983,14.7542176 C21.849996,17.2561814 24.0004125,19.553957 26.7846703,19.4548622 C29.1993385,19.3684842 31.3285907,17.3592352 31.3408553,14.776412 C31.3527785,12.2089449 29.2028458,10.045775 26.5903213,10.0726482 M18.578354,13.2289255 C18.5825869,9.05386726 18.5833125,4.87880899 18.5771429,0.703630761 C18.5767818,0.520317379 18.6326556,0.49416403 18.7983421,0.495603664 C19.7328378,0.503881559 20.6674544,0.50592104 21.6018292,0.494680851 C21.8108118,0.492364487 21.8761188,0.541072101 21.8753932,0.75821688 C21.8674112,3.17692179 21.8703138,5.59550673 21.8703138,8.01421165 L21.8703138,8.27022654 C22.6370671,7.73876169 23.4313945,7.35365963 24.2978015,7.09668498 C25.2994184,6.79976049 26.3121616,6.72981827 27.3470367,6.80407939 C27.8174894,6.83791078 28.2820162,6.91073227 28.7311836,7.03466075 C29.2893172,7.18870158 29.8301564,7.39996785 30.3463241,7.67325835 C31.2342583,8.14341879 32.0187896,8.73846746 32.6823819,9.49007633 C33.3608498,10.2584809 33.8281581,11.1437358 34.2316106,12.0800977 C34.7050868,13.1788982 34.7459642,14.3211278 34.6696517,15.4707954 C34.6183736,16.2426791 34.401409,16.9953677 34.1095832,17.721543 C33.719313,18.6923361 33.1628726,19.5570762 32.4371176,20.3088051 C31.8748722,20.891017 31.2292998,21.3717348 30.5153968,21.7653547 C30.0112021,22.043324 29.4841499,22.2670671 28.938594,22.4341846 C28.5000692,22.5681905 28.0440082,22.6585275 27.5833515,22.7036361 C26.8815425,22.7722586 26.1831197,22.7792168 25.4802222,22.6837211 C25.0762859,22.629135 24.6744056,22.5547539 24.2907871,22.4417427 C23.7260019,22.2757049 23.1741572,22.0529215 22.6624643,21.7516781 C22.434978,21.6175523 22.1966072,21.4997422 21.9875037,21.3357439 C21.9616227,21.3153491 21.9442075,21.2740796 21.9023626,21.2899156 C21.8484238,21.3105503 21.871886,21.3608175 21.8715232,21.3978881 C21.8694672,21.6765772 21.8616062,21.9557462 21.8739419,22.2341954 C21.8803517,22.3787587 21.8434653,22.4193084 21.6926544,22.4178687 C20.8425741,22.4097108 19.9922519,22.4292658 19.1420507,22.4309454 C19.0396154,22.4311853 18.9414129,22.4375437 18.8351075,22.4375437 C18.6422098,22.4375437 18.582224,22.4475012 18.582224,22.2469122" id="Fill-4" fill="#9ea6b2"></path>
                    <g id="Group-8" transform="translate(0.500000, 6.430851)">
                        <mask id="mask-4" fill="white">
                            <use xlink:href="#path-3"></use>
                        </mask>
                        <g id="Clip-7"></g>
                        <path d="M3.61364966,6.51903727 L3.89796542,6.51903727 C5.66606531,6.51903727 7.4341652,6.51915819 9.2022651,6.51903727 C10.2155987,6.51903727 11.2290526,6.51540961 12.2422659,6.52266493 C12.4116762,6.52411599 12.4618496,6.47864933 12.3882139,6.32580394 C12.1398737,5.81007167 11.852189,5.31973301 11.448516,4.90811457 C10.7305676,4.17617379 9.88291437,3.6955089 8.86512894,3.51267486 C8.11024233,3.37712131 7.37436625,3.41702557 6.64691256,3.64605181 C6.01812113,3.84388018 5.46236384,4.16746741 4.95798312,4.59831245 C4.35145086,5.11634223 3.93743032,5.75819613 3.61364966,6.51903727 L3.61364966,6.51903727 Z M14.1465678,9.85152628 C13.6507298,9.85152628 13.1546512,9.86458585 12.6592944,9.84910784 C9.7344397,9.75986741 6.80886305,9.83665287 3.88376768,9.81101741 C3.60221928,9.80847805 3.59463913,9.81440323 3.71243224,10.061205 C4.0956509,10.8627968 4.61519192,11.5466107 5.35961071,12.0538784 C5.72658619,12.304066 6.1089626,12.5142284 6.5239457,12.6555862 C7.21795047,12.8919887 7.93084546,12.9547472 8.66214938,12.8576468 C9.22043339,12.7838844 9.7380493,12.6029851 10.2347296,12.348928 C10.3655172,12.2819373 10.4347011,12.3051543 10.5105026,12.4407078 C10.8090161,12.9732483 11.1231712,13.4965986 11.4301071,14.0243022 C11.5962687,14.309799 11.7544893,14.6000117 11.9259451,14.8822437 C12.0621471,15.1065539 12.0521606,15.1568575 11.831855,15.2780213 C11.3555088,15.5400593 10.8530532,15.7505844 10.3385656,15.9085085 C9.91022697,16.0400717 9.45962921,16.1106901 9.01095657,16.1739323 C8.41417022,16.2578522 7.81437587,16.2422532 7.22143975,16.1996887 C6.72066862,16.1638958 6.21713013,16.0528894 5.73404601,15.909355 C5.17780744,15.7441756 4.64815955,15.497011 4.13319068,15.2207043 C3.30105874,14.7745022 2.60103798,14.1611859 1.97609678,13.4672146 C1.58626054,13.0344348 1.26813491,12.5387756 0.98345819,12.0237688 C0.687591729,11.48881 0.465000045,10.9243461 0.296672603,10.3413812 C0.149521452,9.83169507 0.0665007697,9.30556351 0.0253513881,8.77326493 C-0.038057162,7.95401848 0.0159664414,7.13924613 0.204146655,6.3464816 C0.439732881,5.35347025 0.842683989,4.42249188 1.43032604,3.58027025 C2.05707203,2.68181989 2.82699862,1.93210358 3.74937043,1.34611564 C4.36853627,0.952756418 5.03246109,0.661213511 5.73789625,0.446939752 C6.74136363,0.142095426 7.75734427,0.0682120922 8.79377928,0.15152734 C9.75802239,0.229038333 10.670528,0.487206773 11.5391168,0.913698617 C12.1233899,1.20064649 12.665912,1.54696706 13.1665628,1.96620358 C13.9794436,2.64675252 14.6495047,3.44882805 15.139808,4.38488514 C15.4029475,4.88743691 15.6007533,5.42517699 15.7624632,5.97936245 C16.0478618,6.95750039 16.081792,7.94833514 16.0347469,8.95017379 C16.0221133,9.21874152 15.9627957,9.48634188 15.9110581,9.75140287 C15.8904835,9.85684684 15.7862865,9.85309826 15.698092,9.85309826 C15.1809574,9.85261457 14.6637025,9.8527355 14.1465678,9.8527355 L14.1465678,9.85152628 Z" id="Fill-6" fill="#9ea6b2" mask="url(#mask-4)"></path>
                    </g>
                    <path d="M58.8538287,13.3999189 C58.894041,13.408375 58.9133622,13.4158507 58.9329249,13.4159733 C61.8021261,13.4168312 64.6714481,13.4154831 67.5404078,13.420753 C67.7289104,13.4208754 67.6955813,13.318544 67.6510218,13.225404 C67.4723005,12.8513735 67.2848847,12.4800391 67.0263426,12.1550296 C66.2720904,11.2070852 65.3211241,10.5928516 64.1270727,10.3698059 C63.2090733,10.1983548 62.3262142,10.2935782 61.4705257,10.6557211 C60.572089,11.0358793 59.8557547,11.6470491 59.3192286,12.4698672 C59.1308467,12.758356 58.9774845,13.0680465 58.8538287,13.3999189 L58.8538287,13.3999189 Z M69.4137208,16.7905817 C68.9160787,16.7905817 68.4180742,16.803082 67.9210358,16.7882532 C64.9855387,16.7013634 62.0496793,16.7758753 59.1140614,16.7509972 C58.830281,16.7486687 58.819292,16.7688898 58.9422233,17.0249022 C59.3521954,17.8781134 59.9180657,18.601664 60.7093904,19.1163849 C61.0834975,19.3595292 61.4928659,19.5326961 61.9240914,19.6747345 C62.4871842,19.8600341 63.0503977,19.9003539 63.624721,19.8682451 C64.2247656,19.8346657 64.800055,19.6803719 65.3323546,19.3886968 C65.6418564,19.2192065 65.6732534,19.2313392 65.8582541,19.5600253 C66.3009515,20.3450972 66.7505322,21.1262475 67.2009581,21.906785 C67.3219572,22.1163499 67.3122966,22.1635327 67.1107522,22.2790998 C66.6284462,22.5553334 66.1154678,22.7664915 65.5915005,22.9324277 C65.1669166,23.0669905 64.7214418,23.1461594 64.2752423,23.1940775 C63.5747273,23.2695699 62.8771105,23.2736141 62.1751465,23.1754495 C61.7645705,23.1178498 61.3549607,23.0450535 60.9634644,22.9286286 C60.4234363,22.7684523 59.9088881,22.5233471 59.4073817,22.256305 C58.5491572,21.7995515 57.821351,21.1703664 57.1888226,20.4422814 C56.6399791,19.811013 56.1999384,19.093345 55.8736512,18.309376 C55.5968748,17.6447733 55.391466,16.9571306 55.2987242,16.2458354 C55.2117787,15.5806198 55.1898008,14.9093993 55.2686555,14.2332766 C55.3207021,13.7873077 55.3905,13.3459958 55.5073934,12.917797 C55.6451778,12.4130028 55.8363371,11.9241405 56.0657766,11.4501071 C56.5864835,10.3742178 57.3156181,9.46585792 58.2261306,8.71828707 C58.9691522,8.10809768 59.8027421,7.65355009 60.7208624,7.34104096 C61.712041,7.00365366 62.7208502,6.88796401 63.7516373,6.93588207 C64.7854433,6.98404524 65.771067,7.24324399 66.7124935,7.69056098 C67.2679786,7.95429417 67.7912214,8.2714603 68.2665234,8.65247633 C68.7542634,9.04329656 69.1976855,9.4930646 69.5867665,9.99197623 C69.8910757,10.381816 70.1676107,10.7908966 70.394152,11.2302477 C70.6027004,11.633936 70.7860105,12.0517178 70.9309197,12.4840833 C71.11906,13.0458644 71.2482707,13.6279893 71.2977813,14.2140358 C71.3544167,14.8832956 71.3763945,15.5623595 71.2498406,16.2314967 C71.2262928,16.3560101 71.2118019,16.4844453 71.1987601,16.6071204 C71.1807672,16.7784489 71.0964784,16.7935229 70.9706489,16.7935229 C70.4517534,16.7931553 69.9327371,16.7934004 69.4137208,16.7934004 L69.4137208,16.7905817 Z" id="Fill-9" fill="#9ea6b2"></path>
                    <path d="M74.2780476,11.3758675 L74.2780476,0.771878232 C74.2780476,0.501169433 74.2781729,0.500218743 74.5557475,0.500099907 C75.5167945,0.499505726 76.4778414,0.505685207 77.4387631,0.494680851 C77.6437798,0.492375556 77.6947833,0.548822738 77.6942857,0.737415742 C77.6847581,3.30522774 77.6809986,5.87315857 77.6802467,8.4410894 C77.6787429,12.9628057 77.6788682,17.4847597 77.685134,22.0065949 C77.68551,22.2010109 77.6441557,22.263281 77.4271087,22.2606383 C76.4589188,22.2486642 75.4907288,22.2491395 74.5225388,22.2606383 C74.3171461,22.263281 74.2739122,22.2045759 74.2742857,22.0213306 C74.2795514,18.472526 74.2781729,14.9241967 74.2780476,11.3758675" id="Fill-11" fill="#9ea6b2"></path>
                </g>
            </g>
        </g>
    </g>
</svg>