<svg width="454" height="109" viewBox="0 0 454 109" fill="none" xmlns="http://www.w3.org/2000/svg">
<path fill-rule="evenodd" clip-rule="evenodd" d="M5 13H142V92H5V13Z" fill="white"/>
<path fill-rule="evenodd" clip-rule="evenodd" d="M43.2831 66.0072C42.5343 66.9241 41.6097 67.6815 40.5638 68.2346C39.4913 68.808 38.2641 69.124 36.8777 69.1824C35.4896 69.2425 34.2404 69.0308 33.1253 68.5505C32.0376 68.0888 31.0542 67.4117 30.234 66.5601C29.4165 65.7096 28.7748 64.7057 28.346 63.606C27.899 62.4795 27.6473 61.285 27.6015 60.0737C27.549 58.8618 27.7027 57.6497 28.0558 56.4893C28.3894 55.3533 28.9471 54.2959 29.6959 53.3795C30.4448 52.4632 31.3695 51.7066 32.4155 51.1546C33.4849 50.5811 34.7152 50.2652 36.1016 50.2067C37.4897 50.1483 38.7389 50.3584 39.8525 50.8386C40.9393 51.3003 41.9225 51.9758 42.7437 52.8252C43.5649 53.6745 44.2075 54.6804 44.6333 55.7832C45.0781 56.9095 45.3273 58.088 45.3778 59.317C45.4303 60.5283 45.2772 61.7398 44.9251 62.8999C44.5865 64.0331 44.0292 65.0889 43.2847 66.0072H43.2831ZM80.1669 49.191C81.4351 47.7739 83.2033 47.0157 85.473 46.9177C87.8674 46.8166 89.7649 47.4074 91.1639 48.6902C92.5646 49.9729 93.3327 51.777 93.47 54.1039L77.9634 54.7627C78.1638 52.4673 78.8988 50.608 80.1669 49.191V49.191ZM123.653 62.5886C122.905 63.5058 121.98 64.2632 120.934 64.8161C119.862 65.3895 118.634 65.707 117.246 65.7655C115.86 65.8239 114.609 65.6138 113.496 65.1336C112.408 64.6717 111.424 63.9947 110.604 63.1431C109.787 62.2925 109.144 61.2886 108.715 60.189C108.268 59.0619 108.016 57.8669 107.97 56.6552C107.917 55.4437 108.071 54.2321 108.424 53.0724C108.763 51.9389 109.32 50.883 110.065 49.965C110.813 49.0478 111.738 48.2903 112.784 47.7376C113.855 47.1642 115.084 46.8482 116.47 46.7898C117.858 46.7297 119.108 46.9414 120.223 47.4217C121.309 47.8839 122.292 48.5596 123.113 49.4089C123.934 50.2582 124.576 51.2638 125.002 52.3662C125.448 53.4926 125.696 54.6695 125.746 55.8985C125.799 57.1103 125.646 58.3224 125.294 59.4829C124.955 60.6154 124.397 61.6705 123.653 62.5886V62.5886ZM131.683 21.9422L124.183 23.8252L125.013 44.1153L124.824 44.1232C124.371 43.5573 123.864 43.0372 123.31 42.5703C122.631 42.0024 121.89 41.5138 121.101 41.1138C120.166 40.6391 119.175 40.282 118.152 40.0506C117.048 39.79 115.781 39.6889 114.352 39.7505C112.208 39.8421 110.251 40.3539 108.48 41.2876C106.737 42.1964 105.207 43.4649 103.991 45.0094C102.768 46.5575 101.842 48.3584 101.211 50.4074C100.954 51.2446 100.773 52.1087 100.636 52.9902C100.44 52.0539 100.177 51.1331 99.847 50.2352C99.0663 48.1341 98.0268 46.3854 96.7287 44.9873C95.449 43.605 93.8717 42.5326 92.1166 41.8515C90.3406 41.1565 88.4021 40.8531 86.3011 40.9432C84.0329 41.0396 81.9051 41.5277 79.9209 42.4029C77.9965 43.2367 76.2627 44.456 74.8262 45.9857C74.4855 46.349 74.1653 46.7313 73.864 47.1278L73.6511 41.9432C73.1985 41.8343 72.7418 41.7436 72.282 41.6714C71.8317 41.6022 71.3758 41.5774 70.9208 41.5972C68.9034 41.6825 67.1384 42.2638 65.6241 43.3396C64.1099 44.417 62.9727 45.8956 62.2077 47.7755L62.0815 47.7818L61.8765 42.7741L54.3117 43.0964L55.6051 74.7225L63.1699 74.4019L62.4758 57.4672C62.4601 57.028 62.5263 56.3661 62.6809 55.4783C62.8339 54.5936 63.1746 53.6979 63.7061 52.7943C64.2377 51.8939 65.0263 51.0787 66.0705 50.3521C67.1131 49.6254 68.5169 49.2241 70.2819 49.1483C70.8703 49.1246 71.4728 49.1546 72.0864 49.2368C72.2141 49.2557 72.3451 49.2794 72.4744 49.3C72.1258 49.9571 71.8119 50.6475 71.5422 51.3726C70.763 53.4515 70.4255 55.7437 70.528 58.2475C70.6305 60.7514 71.1542 63.0057 72.099 65.0119C73.0438 67.0182 74.2804 68.7148 75.812 70.1018C77.3688 71.5042 79.1961 72.5719 81.1812 73.2392C83.2317 73.9437 85.391 74.2502 87.6592 74.1523C90.027 74.0571 92.3482 73.4634 94.4716 72.4098C96.6167 71.3514 98.5253 69.6421 100.197 67.282L94.6009 63.23C93.7089 64.4767 92.6105 65.5613 91.3532 66.4369C90.104 67.3057 88.5361 67.7796 86.645 67.8586C84.4998 67.9502 82.6465 67.3689 81.0802 66.1162C79.5124 64.8619 78.5549 63.0547 78.2048 60.693L100.702 59.7372C100.918 61.0326 101.235 62.2774 101.681 63.4575C102.435 65.4479 103.495 67.1651 104.86 68.6027C106.222 70.0403 107.872 71.1735 109.702 71.928C111.563 72.7068 113.671 73.0465 116.026 72.9453C118.096 72.8733 120.124 72.3361 121.959 71.3735C123.773 70.4162 125.185 68.9486 126.199 66.9692L126.325 66.9629L126.521 71.7068L127.414 71.6689L133.654 70.105L131.683 21.9422V21.9422ZM52.0435 43.1927L44.8573 43.4976L45.0513 48.2415L44.9251 48.2479C43.7532 46.3617 42.2248 45.0189 40.3399 44.218C38.4313 43.4142 36.3666 43.0509 34.2988 43.1548C31.9438 43.2543 29.8713 43.7709 28.0779 44.7061C26.3164 45.6143 24.7655 46.8835 23.5257 48.4311C22.2844 49.9808 21.368 51.7801 20.7796 53.829C20.1882 55.878 19.9421 58.0659 20.0383 60.3944C20.133 62.7229 20.5778 64.8824 21.3759 66.8713C22.1724 68.8618 23.2418 70.5773 24.5857 72.0165C25.9238 73.4525 27.552 74.5866 29.3618 75.3434C31.2041 76.1238 33.1978 76.4681 35.3398 76.3765C36.7688 76.3165 38.0228 76.108 39.1033 75.7557C40.104 75.4376 41.0618 74.9972 41.955 74.4445C42.7085 73.9794 43.4064 73.4298 44.0355 72.8063C44.6002 72.2329 45.0608 71.6737 45.4188 71.1302L45.6081 71.1223L46.321 88.5531L53.8211 86.6716L52.0435 43.1927V43.1927ZM140.843 102.129L17.6156 108.981C10.5256 109.375 4.46553 103.834 4.07909 96.6034L0.0190935 20.6784C-0.367347 13.448 5.06649 7.26651 12.1565 6.87316L135.385 0.020291C142.474 -0.374641 148.534 5.16705 148.92 12.3975L152.98 88.324C153.367 95.5544 147.933 101.736 140.843 102.131V102.129Z" fill="#9ea6b2"/>
<path d="M210.543 42.999V45.342H200.544V53.229H208.662V55.572H200.544V66H197.541V42.999H210.543ZM226.598 66.231C224.464 66.231 222.517 65.736 220.757 64.746C218.997 63.734 217.6 62.337 216.566 60.555C215.554 58.751 215.048 56.727 215.048 54.483C215.048 52.239 215.554 50.226 216.566 48.444C217.6 46.64 218.997 45.243 220.757 44.253C222.517 43.241 224.464 42.735 226.598 42.735C228.754 42.735 230.712 43.241 232.472 44.253C234.232 45.243 235.618 46.629 236.63 48.411C237.642 50.193 238.148 52.217 238.148 54.483C238.148 56.749 237.642 58.773 236.63 60.555C235.618 62.337 234.232 63.734 232.472 64.746C230.712 65.736 228.754 66.231 226.598 66.231ZM226.598 63.525C228.204 63.525 229.645 63.151 230.921 62.403C232.219 61.655 233.231 60.599 233.957 59.235C234.705 57.871 235.079 56.287 235.079 54.483C235.079 52.679 234.705 51.095 233.957 49.731C233.231 48.345 232.219 47.289 230.921 46.563C229.645 45.815 228.204 45.441 226.598 45.441C224.992 45.441 223.54 45.815 222.242 46.563C220.966 47.289 219.954 48.345 219.206 49.731C218.48 51.095 218.117 52.679 218.117 54.483C218.117 56.287 218.48 57.871 219.206 59.235C219.954 60.599 220.966 61.655 222.242 62.403C223.54 63.151 224.992 63.525 226.598 63.525ZM224.024 40.689C223.54 40.689 223.122 40.524 222.77 40.194C222.44 39.864 222.275 39.457 222.275 38.973C222.275 38.489 222.44 38.082 222.77 37.752C223.122 37.4 223.54 37.224 224.024 37.224C224.486 37.224 224.882 37.4 225.212 37.752C225.564 38.082 225.74 38.489 225.74 38.973C225.74 39.457 225.564 39.864 225.212 40.194C224.882 40.524 224.486 40.689 224.024 40.689ZM229.37 40.689C228.886 40.689 228.479 40.524 228.149 40.194C227.819 39.864 227.654 39.457 227.654 38.973C227.654 38.489 227.819 38.082 228.149 37.752C228.479 37.4 228.886 37.224 229.37 37.224C229.854 37.224 230.261 37.4 230.591 37.752C230.943 38.082 231.119 38.489 231.119 38.973C231.119 39.457 230.943 39.864 230.591 40.194C230.261 40.524 229.854 40.689 229.37 40.689ZM256.223 66L250.745 56.595H247.115V66H244.112V42.999H251.537C253.275 42.999 254.738 43.296 255.926 43.89C257.136 44.484 258.038 45.287 258.632 46.299C259.226 47.311 259.523 48.466 259.523 49.764C259.523 51.348 259.061 52.745 258.137 53.955C257.235 55.165 255.871 55.968 254.045 56.364L259.82 66H256.223ZM247.115 54.186H251.537C253.165 54.186 254.386 53.79 255.2 52.998C256.014 52.184 256.421 51.106 256.421 49.764C256.421 48.378 256.025 47.3 255.233 46.53C254.441 45.76 253.209 45.375 251.537 45.375H247.115V54.186ZM269.192 45.342V53.229H277.574V55.539H269.192V63.624H278.564V66H266.189V42.966H278.564V45.342H269.192ZM299.265 42.999V45.342H292.995V66H289.992V45.342H283.689V42.999H299.265ZM318.558 60.885H308.526L306.678 66H303.51L311.826 43.131H315.291L323.574 66H320.406L318.558 60.885ZM317.733 58.542L313.542 46.827L309.351 58.542H317.733ZM328.076 54.483C328.076 52.239 328.582 50.226 329.594 48.444C330.628 46.64 332.025 45.243 333.785 44.253C335.545 43.241 337.492 42.735 339.626 42.735C342.068 42.735 344.224 43.34 346.094 44.55C347.986 45.76 349.361 47.465 350.219 49.665H346.622C345.984 48.323 345.06 47.289 343.85 46.563C342.64 45.815 341.232 45.441 339.626 45.441C338.02 45.441 336.568 45.815 335.27 46.563C333.994 47.289 332.982 48.345 332.234 49.731C331.508 51.095 331.145 52.679 331.145 54.483C331.145 56.287 331.508 57.871 332.234 59.235C332.982 60.599 333.994 61.655 335.27 62.403C336.568 63.129 338.02 63.492 339.626 63.492C341.892 63.492 343.751 62.821 345.203 61.479C346.655 60.115 347.491 58.278 347.711 55.968H338.537V53.592H350.912V55.902C350.736 57.794 350.142 59.532 349.13 61.116C348.118 62.678 346.787 63.921 345.137 64.845C343.487 65.747 341.65 66.198 339.626 66.198C337.492 66.198 335.545 65.703 333.785 64.713C332.025 63.701 330.628 62.304 329.594 60.522C328.582 58.74 328.076 56.727 328.076 54.483ZM364.176 66.231C362.658 66.231 361.294 65.967 360.084 65.439C358.896 64.889 357.961 64.141 357.279 63.195C356.597 62.227 356.245 61.116 356.223 59.862H359.424C359.534 60.962 359.985 61.897 360.777 62.667C361.569 63.415 362.702 63.789 364.176 63.789C365.584 63.789 366.706 63.426 367.542 62.7C368.378 61.952 368.796 61.006 368.796 59.862C368.796 58.982 368.554 58.267 368.07 57.717C367.586 57.167 366.981 56.749 366.255 56.463C365.529 56.177 364.55 55.869 363.318 55.539C361.8 55.143 360.579 54.747 359.655 54.351C358.753 53.955 357.972 53.339 357.312 52.503C356.674 51.645 356.355 50.501 356.355 49.071C356.355 47.817 356.674 46.706 357.312 45.738C357.95 44.77 358.841 44.022 359.985 43.494C361.151 42.966 362.482 42.702 363.978 42.702C366.134 42.702 367.894 43.241 369.258 44.319C370.644 45.397 371.425 46.827 371.601 48.609H368.301C368.191 47.663 367.729 46.86 366.915 46.2C366.123 45.518 365.045 45.177 363.681 45.177C362.427 45.177 361.404 45.507 360.612 46.167C359.82 46.827 359.424 47.762 359.424 48.972C359.424 49.808 359.655 50.49 360.117 51.018C360.601 51.546 361.184 51.953 361.866 52.239C362.57 52.503 363.549 52.811 364.803 53.163C366.321 53.581 367.542 53.999 368.466 54.417C369.39 54.813 370.182 55.44 370.842 56.298C371.502 57.134 371.832 58.278 371.832 59.73C371.832 60.852 371.535 61.908 370.941 62.898C370.347 63.888 369.467 64.691 368.301 65.307C367.135 65.923 365.76 66.231 364.176 66.231ZM381.254 63.69H389.306V66H378.251V42.999H381.254V63.69ZM408.091 60.885H398.059L396.211 66H393.043L401.359 43.131H404.824L413.107 66H409.939L408.091 60.885ZM407.266 58.542L403.075 46.827L398.884 58.542H407.266ZM399.643 37.719C399.643 36.663 399.973 35.827 400.633 35.211C401.293 34.573 402.118 34.254 403.108 34.254C404.098 34.254 404.912 34.573 405.55 35.211C406.21 35.827 406.54 36.663 406.54 37.719C406.54 38.775 406.21 39.622 405.55 40.26C404.912 40.876 404.098 41.184 403.108 41.184C402.118 41.184 401.293 40.876 400.633 40.26C399.973 39.622 399.643 38.775 399.643 37.719ZM404.956 37.686C404.956 37.136 404.78 36.696 404.428 36.366C404.076 36.014 403.636 35.838 403.108 35.838C402.58 35.838 402.14 36.014 401.788 36.366C401.436 36.696 401.26 37.136 401.26 37.686C401.26 38.236 401.436 38.687 401.788 39.039C402.14 39.391 402.58 39.567 403.108 39.567C403.636 39.567 404.076 39.391 404.428 39.039C404.78 38.687 404.956 38.236 404.956 37.686ZM436.815 66H433.812L421.734 47.685V66H418.731V42.966H421.734L433.812 61.248V42.966H436.815V66Z" fill="#9ea6b2"/>
</svg>
