<?xml version="1.0" encoding="UTF-8" standalone="no"?>
<svg
   xmlns:dc="http://purl.org/dc/elements/1.1/"
   xmlns:cc="http://creativecommons.org/ns#"
   xmlns:rdf="http://www.w3.org/1999/02/22-rdf-syntax-ns#"
   xmlns:svg="http://www.w3.org/2000/svg"
   xmlns="http://www.w3.org/2000/svg"
   xmlns:sodipodi="http://sodipodi.sourceforge.net/DTD/sodipodi-0.dtd"
   xmlns:inkscape="http://www.inkscape.org/namespaces/inkscape"
   height="77.803879"
   width="178.27879"
   xml:space="preserve"
   version="1.1"
   id="svg2"
   inkscape:version="0.91 r13725"
   sodipodi:docname="sting.svg"><sodipodi:namedview
     pagecolor="#9ea6b2"
     bordercolor="#666666"
     borderopacity="1"
     objecttolerance="10"
     gridtolerance="10"
     guidetolerance="10"
     inkscape:pageopacity="0"
     inkscape:pageshadow="2"
     inkscape:window-width="1920"
     inkscape:window-height="1027"
     id="namedview27"
     showgrid="false"
     inkscape:zoom="2.7209649"
     inkscape:cx="90.338942"
     inkscape:cy="39.157891"
     inkscape:window-x="-8"
     inkscape:window-y="-8"
     inkscape:window-maximized="1"
     inkscape:current-layer="svg2"
     fit-margin-top="0"
     fit-margin-left="0"
     fit-margin-right="0"
     fit-margin-bottom="0" /><rect
     id="backgroundrect"
     width="1122.52"
     height="793.70667"
     x="-470.92108"
     y="-358.20734"
     style="fill:none;stroke:none" /><metadata
     id="metadata8"><rdf:RDF><cc:Work
         rdf:about=""><dc:format>image/svg+xml</dc:format><dc:type
           rdf:resource="http://purl.org/dc/dcmitype/StillImage" /><dc:title></dc:title></cc:Work></rdf:RDF></metadata><defs
     id="defs6"><clipPath
       id="clipPath20"
       clipPathUnits="userSpaceOnUse"><path
         id="path18"
         d="m 0,595.28 841.89,0 L 841.89,0 0,0 Z"
         inkscape:connector-curvature="0" /></clipPath></defs><g
     class="currentLayer"
     id="g9"
     style="fill:#9ea6b2"
     transform="translate(-470.92107,-358.20734)"><title
       id="title11">Layer 1</title><g
       id="g10"
       class="selected"
       style="fill:#9ea6b2;fill-opacity:1"><path
         id="path12"
         style="fill:#9ea6b2;fill-opacity:1;fill-rule:nonzero;stroke:none;stroke-width:0"
         d="m 544.25599,418.48935 11.32266,0 0,-42.05467 -11.32266,0 z"
         inkscape:connector-curvature="0" /><g
         id="g14"
         style="fill:#9ea6b2;fill-opacity:1;stroke-width:0"><g
           clip-path="url(#clipPath20)"
           id="g16"
           style="fill:#9ea6b2;fill-opacity:1;stroke-width:0"><g
             id="g22"
             style="fill:#9ea6b2;fill-opacity:1;stroke-width:0"><path
               id="path24"
               style="fill:#9ea6b2;fill-opacity:1;fill-rule:nonzero;stroke:none;stroke-width:0"
               d="m 574.8828,418.4896 -11.32267,0 0,-42.05467 10.98267,0 0,5.21467 c 2.55333,-4.36 7.57733,-6.32667 12.09066,-6.32667 10.38534,0 15.15467,7.43734 15.15467,16.668 l 0,26.49867 -11.324,0 0,-24.532 c 0,-4.70133 -2.3,-8.376 -7.74933,-8.376 -4.93734,0 -7.832,3.84667 -7.832,8.71733 z"
               inkscape:connector-curvature="0" /></g><g
             id="g26"
             style="fill:#9ea6b2;fill-opacity:1;stroke-width:0"><path
               id="path28"
               style="fill:#9ea6b2;fill-opacity:1;fill-rule:nonzero;stroke:none;stroke-width:0"
               d="m 537.36131,386.5215 0,-10.08667 -8.42933,0 0,-6.85466 -11.168,4.77066 -0.0707,31.74534 c 0,8.11866 5.108,12.99066 13.28266,12.99066 3.32,0 5.36267,-0.59733 6.38533,-1.02533 l 0,-9.40267 c -0.596,0.172 -2.12933,0.34267 -3.49066,0.34267 -3.236,0 -4.93867,-1.19733 -4.93867,-4.87067 l 0,-17.60933 z"
               inkscape:connector-curvature="0" /></g><g
             id="g30"
             style="fill:#9ea6b2;fill-opacity:1;stroke-width:0"><path
               id="path32"
               style="fill:#9ea6b2;fill-opacity:1;fill-rule:nonzero;stroke:none;stroke-width:0"
               d="m 544.25837,363.05401 0,6.26533 11.42133,0 0,-11.112 z"
               inkscape:connector-curvature="0" /></g><g
             id="g34"
             style="fill:#9ea6b2;fill-opacity:1;stroke-width:0"><path
               id="path36"
               style="fill:#9ea6b2;fill-opacity:1;fill-rule:nonzero;stroke:none;stroke-width:0"
               d="m 628.33987,406.86456 c -5.87333,0 -10.04667,-4.10267 -10.04667,-10.68534 0,-6.496 4.428,-10.59866 10.04667,-10.59866 5.44933,0 9.876,4.10266 9.876,10.59866 0,6.496 -4.08667,10.68534 -9.876,10.68534 m 9.96267,-30.42934 0,4.95734 c -1.448,-2.82 -5.27867,-5.72667 -11.92134,-5.72667 -11.49333,0 -19.49733,9.40267 -19.49733,20.51333 0,11.79734 8.34533,20.42934 19.49733,20.42934 6.044,0 9.96267,-2.65067 11.664,-5.384 l 0,3.076 c 0,8.12133 -4.00133,11.71066 -11.15333,11.71066 -4.22267,0 -7.38133,-2.072 -8.912,-5.20533 l -9.57067,4.06133 c 2.96534,5.908 9.68,11.144 18.824,11.144 15.74934,0 21.96667,-10.51333 21.96667,-22.05333 l 0,-37.52267 z"
               inkscape:connector-curvature="0" /></g><g
             id="g38"
             style="fill:#9ea6b2;fill-opacity:1;stroke-width:0"><path
               id="path40"
               style="fill:#9ea6b2;fill-opacity:1;fill-rule:nonzero;stroke:none;stroke-width:0"
               d="m 496.17707,386.60093 -7.54667,-1.62267 c -3.42133,-0.636 -5.39466,-2.62 -5.39466,-5.43867 0,-3.36133 3.28533,-5.99466 7.47866,-5.99466 5.076,0 9.35867,2.872 10.33067,7.844 l 10.22267,-4.33734 c -4.16667,-11.128 -14.496,-13.04 -20.66,-13.04 -10.728,0 -19.12934,7.344 -19.12934,16.71734 0,4.54933 1.75734,8.28 5.06134,11.00933 l 0.024,-0.0147 0.032,0.06 c 2.32933,1.90534 5.41066,3.32267 9.20666,4.16534 l 7.008,1.62266 c 5.16,1.09067 6.24534,3.79467 6.24534,5.868 0,2.98534 -2.37867,5.99467 -7.69334,5.99467 -6.52533,0 -9.51866,-3.904 -10.23866,-7.65067 l -10.20267,4.34534 c 2.04533,5.62933 7.84933,12.94666 20.548,12.94666 13.66133,0 19.884,-8.72 19.884,-16.824 0,-7.95066 -5.532,-13.65466 -15.176,-15.65066"
               inkscape:connector-curvature="0" /></g></g></g></g></g></svg>