<svg xmlns="http://www.w3.org/2000/svg" viewBox="0 0 203.037 88.194">
  <title>Asset 1</title>
  <g id="adf90c24-f88b-43e3-ac80-faa824fc45ff" data-name="Layer 2">
    <g id="f9db2d3d-1103-4f20-a44a-7b1d15f71dbc" data-name="Layer 1">
      <g>
        <g>
          <path d="M126.123,50.586c0,5.053-4.643,8.422-11.518,8.422-7.33,0-11.745-3.323-11.745-9.242h3.96c0,3.551,2.823,5.691,8.1,5.691,4.462,0,7.193-1.776,7.147-4.871,0-8.833-18.392-2.413-18.392-14.933,0-5.145,4.462-8.423,11.154-8.423s10.926,3.324,10.88,9.015h-3.96c0-3.779-2.777-5.464-7.057-5.464-4.826,0-6.965,1.73-6.965,4.781C107.731,43.984,126.123,37.7,126.123,50.586Z" fill="#9ea6b2"/>
          <path d="M143.659,58.416a9.883,9.883,0,0,1-3.5.547c-5.19,0-8.286-2.914-8.286-7.558V39.887H128.5v-3.46h3.6V29.78h3.778v6.647h7.239V39.8h-7.239V51.405c0,2.231,1.048,4.052,4.69,4.052a7.2,7.2,0,0,0,2.913-.547Z" fill="#9ea6b2"/>
          <path d="M157.576,36.336l-.045,3.96a3.821,3.821,0,0,0-1.5-.182c-2.822,0-5.463,2.368-5.463,6.875V58.735h-4.006V36.427h3.778l.092,3.6A6.317,6.317,0,0,1,156.3,36.2,6.654,6.654,0,0,1,157.576,36.336Z" fill="#9ea6b2"/>
          <path d="M162.679,31.874a2.693,2.693,0,0,1-2.777-2.731,2.778,2.778,0,0,1,5.555,0A2.694,2.694,0,0,1,162.679,31.874Zm-2.139,4.553h4.051V58.735H160.54Z" fill="#9ea6b2"/>
          <path d="M189.075,36.427l-8.559,22.308h-4.371l-8.7-22.308h4.507l5.736,15.843a17.99,17.99,0,0,1,.729,2.367h.09a18.129,18.129,0,0,1,.638-2.367l5.828-15.843Z" fill="#9ea6b2"/>
          <path d="M203.037,36.336l-.046,3.96a3.814,3.814,0,0,0-1.5-.182c-2.822,0-5.463,2.368-5.463,6.875V58.735H192.02V36.427H195.8l.09,3.6a6.32,6.32,0,0,1,5.873-3.825A6.654,6.654,0,0,1,203.037,36.336Z" fill="#9ea6b2"/>
        </g>
        <g>
          <path d="M65.149,46.144h-42.1A23.073,23.073,0,0,1,0,23.1v-.052A23.072,23.072,0,0,1,23.046,0h42.1A23.071,23.071,0,0,1,88.194,23.046V23.1A23.072,23.072,0,0,1,65.149,46.144Zm-42.1-42.05A18.973,18.973,0,0,0,4.094,23.046V23.1A18.974,18.974,0,0,0,23.046,42.05h42.1A18.974,18.974,0,0,0,84.1,23.1v-.052A18.973,18.973,0,0,0,65.149,4.094Z" fill="#9ea6b2"/>
          <path d="M65.149,46.144H65.1A23.073,23.073,0,0,1,42.05,23.1v-.052A23.072,23.072,0,0,1,65.1,0h.053A23.071,23.071,0,0,1,88.194,23.046V23.1A23.072,23.072,0,0,1,65.149,46.144ZM65.1,4.094A18.973,18.973,0,0,0,46.144,23.046V23.1A18.974,18.974,0,0,0,65.1,42.05h.053A18.974,18.974,0,0,0,84.1,23.1v-.052A18.973,18.973,0,0,0,65.149,4.094Z" fill="#9ea6b2"/>
          <path d="M65.149,88.194h-42.1A23.072,23.072,0,0,1,0,65.148V65.1A23.072,23.072,0,0,1,23.046,42.05h42.1A23.071,23.071,0,0,1,88.194,65.1v.052A23.071,23.071,0,0,1,65.149,88.194Zm-42.1-42.05A18.973,18.973,0,0,0,4.094,65.1v.052A18.974,18.974,0,0,0,23.046,84.1h42.1A18.974,18.974,0,0,0,84.1,65.148V65.1A18.973,18.973,0,0,0,65.149,46.144Z" fill="#9ea6b2"/>
          <path d="M23.1,88.194h-.052A23.072,23.072,0,0,1,0,65.148V65.1A23.072,23.072,0,0,1,23.046,42.05H23.1A23.072,23.072,0,0,1,46.144,65.1v.052A23.072,23.072,0,0,1,23.1,88.194Zm-.052-42.05A18.973,18.973,0,0,0,4.094,65.1v.052A18.974,18.974,0,0,0,23.046,84.1H23.1A18.973,18.973,0,0,0,42.05,65.148V65.1A18.972,18.972,0,0,0,23.1,46.144Z" fill="#9ea6b2"/>
        </g>
      </g>
    </g>
  </g>
</svg>
